<?xml version="1.0" standalone="no"?>
<!DOCTYPE svg PUBLIC "-//W3C//DTD SVG 20010904//EN"
 "http://www.w3.org/TR/2001/REC-SVG-20010904/DTD/svg10.dtd">
<svg version="1.0" xmlns="http://www.w3.org/2000/svg"
 width="914.000000pt" height="918.000000pt" viewBox="0 0 914.000000 918.000000"
 preserveAspectRatio="xMidYMid meet">

<g transform="translate(0.000000,918.000000) scale(0.100000,-0.100000)"
fill="#000000" stroke="none">
<path d="M1 7023 c1 -1197 5 -2118 10 -2068 51 562 187 1070 417 1560 645
1371 1933 2339 3419 2571 341 53 781 69 1102 40 680 -62 1265 -240 1849 -565
682 -379 1293 -973 1689 -1641 147 -248 219 -394 328 -664 141 -351 236 -730
292 -1161 22 -178 26 -825 5 -1000 -70 -583 -203 -1042 -447 -1540 -589 -1203
-1704 -2102 -3000 -2418 -396 -96 -661 -127 -1095 -127 -429 0 -678 27 -1060
116 -1222 285 -2299 1093 -2922 2193 -321 564 -507 1170 -577 1871 -5 49 -9
-819 -10 -2052 l-1 -2138 4570 0 4570 0 0 4590 0 4590 -4570 0 -4570 0 1
-2157z"/>
<path d="M1455 7479 c-22 -6 -78 -28 -125 -51 -67 -32 -101 -57 -161 -118
-128 -129 -187 -283 -176 -460 8 -120 38 -198 157 -405 56 -99 162 -283 235
-410 73 -126 141 -251 153 -277 15 -34 28 -49 46 -54 35 -8 51 7 91 85 18 36
133 242 256 456 124 215 232 415 242 445 74 228 19 457 -150 626 -78 79 -171
132 -278 159 -65 17 -226 19 -290 4z"/>
<path d="M3330 6605 c-132 -26 -277 -104 -370 -199 -24 -25 -49 -46 -55 -46
-23 0 -183 -74 -250 -115 -49 -31 -83 -45 -107 -45 -55 0 -184 -37 -248 -71
-114 -60 -204 -180 -216 -287 l-5 -47 24 65 c46 126 112 201 220 249 58 26
201 61 249 61 11 0 44 15 72 34 77 50 163 92 246 117 70 21 80 28 144 96 57
62 84 81 160 118 96 46 151 60 282 74 l79 8 -80 1 c-44 0 -109 -6 -145 -13z"/>
<path d="M3974 6600 c-58 -8 -81 -19 -109 -50 -19 -21 -20 -39 -23 -266 -2
-225 -1 -245 15 -251 18 -7 1179 13 1386 24 l117 6 0 94 c0 57 -5 106 -14 126
-15 36 -99 119 -164 162 -23 15 -42 30 -42 32 0 17 161 -59 204 -98 58 -51 75
-82 92 -171 8 -45 20 -98 27 -115 10 -31 14 -33 55 -33 38 0 43 3 39 18 -25
76 -47 161 -47 181 0 34 -43 103 -82 133 -64 48 -226 118 -276 118 -10 0 -12
3 -7 9 15 13 264 -16 384 -44 57 -14 130 -39 162 -57 72 -38 214 -156 329
-272 l85 -86 60 0 60 1 -45 40 c-25 23 -76 71 -115 108 -151 144 -275 248
-331 278 -122 65 -300 96 -651 113 -228 11 -1033 11 -1109 0z"/>
<path d="M3530 6564 c-14 -2 -56 -9 -95 -15 -130 -21 -273 -83 -352 -152 -46
-40 -93 -105 -93 -127 0 -17 64 -51 161 -85 41 -15 44 -15 78 9 46 32 104 52
174 61 74 9 135 -18 161 -71 21 -45 14 -56 -10 -15 -28 47 -75 65 -153 57
-118 -11 -222 -81 -207 -140 10 -41 52 -56 160 -56 l95 0 16 -35 c26 -53 35
-56 83 -28 31 18 40 29 33 36 -14 14 -14 50 -1 63 7 7 35 5 85 -5 41 -8 77
-12 80 -9 19 19 6 464 -14 497 -9 13 -150 24 -201 15z"/>
<path d="M2847 6089 c-32 -28 -64 -64 -72 -80 -30 -58 -11 -108 42 -109 12 0
35 -11 50 -24 l28 -25 -2 -168 c-2 -154 -15 -382 -29 -521 -7 -76 11 -49 30
45 22 104 36 288 36 484 0 201 -6 219 -80 239 -69 18 -60 68 27 162 60 63 42
62 -30 -3z"/>
<path d="M6333 6010 c123 -76 227 -186 287 -308 16 -31 29 -50 29 -42 2 31
-63 148 -130 238 l-69 92 29 0 c63 0 189 -32 259 -65 124 -59 209 -163 239
-295 l13 -55 -3 65 c-7 164 -152 314 -353 364 -51 13 -103 20 -324 43 l-45 4
68 -41z"/>
<path d="M4010 5978 c295 -94 392 -127 485 -163 153 -61 307 -129 394 -177
106 -58 78 -29 -35 38 -279 164 -617 292 -814 308 -58 5 -61 4 -30 -6z"/>
<path d="M2176 5870 c-67 -80 -117 -406 -97 -624 17 -179 58 -296 121 -350
l32 -26 214 0 c129 0 223 4 235 10 10 6 28 28 39 49 14 28 25 38 37 35 10 -3
175 -31 367 -63 248 -42 353 -63 360 -74 65 -91 96 -128 136 -162 84 -69 106
-74 358 -74 251 -1 265 2 333 70 l37 37 299 6 c164 3 474 8 688 11 215 3 495
10 624 16 l234 10 31 -29 c53 -51 61 -52 299 -52 l224 0 59 30 c33 16 74 44
91 62 l32 33 -39 42 c-21 23 -51 45 -67 49 -15 4 -190 -1 -388 -11 -214 -11
-615 -21 -990 -25 -691 -7 -677 -6 -778 -70 l-48 -30 -259 0 c-258 0 -260 0
-274 23 -22 34 -45 145 -56 275 -38 428 -140 652 -300 652 -142 0 -268 -193
-299 -461 -11 -89 -7 -172 14 -305 l7 -41 -417 84 c-417 84 -493 105 -520 147
-8 12 -19 59 -25 106 -46 349 -133 599 -228 662 -38 25 -57 22 -86 -12z m87
-72 c118 -62 164 -485 80 -739 -78 -237 -209 -138 -243 185 -25 228 25 481
106 545 31 25 29 24 57 9z m1583 -194 c28 -17 76 -133 107 -259 30 -117 34
-153 47 -340 5 -77 16 -164 25 -193 15 -50 15 -55 -1 -73 -9 -10 -44 -32 -77
-49 -49 -25 -73 -30 -129 -30 -113 0 -199 51 -273 159 -71 106 -89 172 -90
326 0 139 12 192 63 285 87 159 230 235 328 174z"/>
<path d="M2255 5711 c-5 -9 32 -241 40 -249 12 -12 23 16 35 81 11 69 11 76
-9 115 -22 43 -55 70 -66 53z"/>
<path d="M2171 5530 c-10 -47 -16 -220 -7 -220 2 0 24 9 48 20 41 18 46 24 52
61 6 35 2 51 -30 108 -20 36 -39 70 -44 74 -4 5 -13 -14 -19 -43z"/>
<path d="M2347 5452 c-8 -12 5 -102 14 -102 5 0 9 25 9 55 0 49 -10 69 -23 47z"/>
<path d="M2286 5418 c-10 -40 -6 -94 9 -114 13 -16 16 -17 25 -4 11 16 14 99
4 124 -9 23 -31 19 -38 -6z"/>
<path d="M2332 5288 c-8 -8 -12 -46 -12 -107 0 -111 11 -111 34 2 12 56 13 83
6 97 -13 23 -13 23 -28 8z"/>
<path d="M2220 5231 c-22 -33 -40 -68 -40 -78 0 -31 47 -121 69 -133 27 -14
27 -14 41 128 9 87 9 116 0 127 -19 23 -27 19 -70 -44z"/>
<path d="M3708 5584 c-16 -8 -28 -16 -28 -17 0 -6 93 -253 100 -267 5 -9 22
-15 45 -15 37 0 38 1 62 64 l24 64 -22 66 c-28 84 -64 121 -116 121 -21 -1
-50 -8 -65 -16z"/>
<path d="M3530 5395 c-35 -72 -50 -143 -50 -237 0 -71 3 -88 15 -88 15 0 207
48 210 53 1 1 7 28 14 59 l12 58 -73 87 c-83 100 -95 113 -101 113 -3 0 -15
-20 -27 -45z"/>
<path d="M3916 5251 c-14 -15 -15 -24 -7 -40 6 -11 11 -31 11 -44 0 -23 16
-37 42 -37 5 0 7 12 4 28 -3 15 -8 46 -11 70 -7 47 -14 51 -39 23z"/>
<path d="M3800 5233 c-48 -19 -64 -110 -26 -152 25 -28 70 -27 90 1 23 32 20
100 -5 132 -20 26 -31 29 -59 19z"/>
<path d="M3627 4989 c-53 -40 -97 -76 -97 -81 0 -18 39 -84 73 -123 38 -44
143 -104 156 -89 5 5 16 76 25 159 14 119 15 150 5 154 -7 2 -23 15 -36 27
-13 13 -25 24 -26 24 -1 0 -46 -32 -100 -71z"/>
<path d="M3876 5034 c-27 -24 -28 -28 -23 -87 13 -124 29 -252 32 -255 5 -6
104 49 117 65 8 10 8 24 -1 55 -7 22 -16 77 -21 121 -7 72 -11 84 -36 104 -16
13 -31 23 -34 23 -3 -1 -18 -12 -34 -26z"/>
<path d="M6798 5584 c-79 -39 -128 -70 -128 -79 0 -11 27 -2 101 36 56 27 107
48 114 45 14 -5 37 -94 29 -108 -3 -5 -31 -22 -62 -39 -31 -16 -50 -28 -41
-25 9 2 37 7 61 11 l45 7 7 -43 c4 -23 3 -46 -1 -50 -4 -4 -30 -17 -58 -28
l-50 -21 55 3 c54 2 55 1 58 -27 5 -38 -6 -76 -21 -76 -6 0 -30 -9 -52 -20
l-40 -19 53 6 52 6 0 -33 c0 -25 -9 -42 -39 -71 -43 -40 -101 -63 -214 -85
l-72 -14 62 6 c130 11 255 60 297 117 18 25 21 46 24 197 5 209 -15 372 -46
369 -4 0 -64 -29 -134 -65z"/>
<path d="M4238 5594 c-16 -8 -28 -22 -28 -30 0 -9 16 -66 34 -128 19 -61 44
-149 56 -196 25 -98 57 -159 103 -194 48 -37 132 -71 217 -90 111 -24 376 -46
535 -45 l140 2 -200 13 c-332 21 -432 37 -538 84 -87 39 -180 149 -114 136 12
-3 99 -7 192 -9 l170 -5 -201 26 -202 25 -11 37 c-19 65 -29 62 177 56 193 -5
181 1 -43 23 -169 17 -160 14 -175 66 -7 25 -11 48 -8 50 2 3 102 -2 222 -11
120 -8 220 -13 222 -11 2 2 -90 16 -204 31 -114 15 -220 30 -235 33 -35 7 -53
46 -38 80 20 44 81 40 615 -42 119 -18 134 -19 120 -5 -14 14 -681 120 -748
120 -17 -1 -43 -8 -58 -16z"/>
<path d="M6399 5516 c-16 -16 -379 -51 -654 -63 -133 -6 -158 -9 -115 -14 92
-12 536 -8 679 5 l134 12 34 -72 c18 -40 33 -80 33 -90 0 -9 -30 -75 -67 -146
-47 -89 -74 -130 -88 -133 -42 -9 -331 -26 -610 -35 l-290 -10 -77 81 c-43 45
-78 79 -78 75 0 -4 26 -52 58 -108 l57 -101 275 7 c257 6 502 19 665 34 l70 7
56 112 c31 62 67 136 79 165 l22 53 -22 50 c-12 28 -38 78 -58 112 -33 55 -41
63 -68 63 -17 0 -33 -2 -35 -4z"/>
<path d="M6558 4953 c7 -3 16 -2 19 1 4 3 -2 6 -13 5 -11 0 -14 -3 -6 -6z"/>
<path d="M1196 4098 c-91 -216 -166 -397 -166 -402 0 -3 29 -6 66 -6 65 0 65
0 80 35 14 34 15 35 74 35 l60 0 0 -34 0 -35 155 2 c85 1 155 5 155 10 0 4
-36 7 -79 7 -44 0 -82 4 -85 8 -3 5 -7 51 -11 103 -5 92 -9 142 -21 254 l-5
55 -105 0 -104 0 -14 -32z m104 -163 l0 -65 -30 0 c-16 0 -30 4 -30 10 0 14
48 120 54 120 4 0 6 -29 6 -65z"/>
<path d="M2225 4060 c-2 -3 8 -55 22 -115 22 -98 27 -161 20 -232 -1 -12 1
-22 6 -23 4 0 29 0 55 0 l48 0 11 58 c7 33 32 94 60 145 l48 89 88 -6 c54 -4
87 -2 87 4 0 6 -32 10 -73 10 -41 0 -76 3 -80 6 -3 3 0 17 6 31 11 25 13 25
84 19 48 -5 73 -3 73 4 0 6 -46 10 -128 10 l-129 0 -28 -65 c-29 -70 -45 -76
-45 -17 0 73 -6 80 -67 84 -30 1 -56 1 -58 -2z"/>
<path d="M2935 4060 l-219 -5 -8 -35 c-10 -49 -4 -60 37 -60 35 0 36 -1 30
-32 -35 -189 -41 -238 -30 -241 16 -7 98 2 107 11 6 6 48 225 48 253 0 5 18 9
40 9 23 0 40 5 40 11 0 9 24 10 84 5 53 -4 87 -2 91 4 4 6 -25 10 -80 10 l-86
0 3 28 3 27 88 -3 c49 -1 87 2 87 7 0 6 -3 11 -7 13 -5 2 -107 1 -228 -2z"/>
<path d="M5458 4062 c-9 -2 -19 -37 -32 -110 -10 -59 -24 -140 -32 -181 -8
-41 -12 -76 -9 -79 4 -4 67 -6 104 -3 5 1 12 23 16 51 4 27 11 52 15 55 12 7
27 -22 35 -68 l7 -37 62 0 c35 0 65 3 69 6 3 4 0 16 -7 28 -8 11 -16 36 -20
55 -5 27 -2 38 16 55 48 44 64 154 29 197 -18 22 -29 24 -129 29 -60 3 -116 4
-124 2z m142 -132 c0 -27 -15 -40 -46 -40 -18 0 -19 67 -1 73 27 9 47 -5 47
-33z"/>
<path d="M6915 4060 l-70 -5 74 -8 c72 -7 94 -4 75 11 -5 4 -40 5 -79 2z"/>
<path d="M7084 4063 l-50 -4 -32 -181 c-18 -99 -31 -183 -28 -185 8 -8 238 -5
246 4 5 4 10 26 12 48 l3 40 -40 1 c-83 2 -85 3 -85 29 0 22 4 24 58 27 56 3
57 3 57 33 0 31 0 31 -67 34 -23 1 -28 6 -28 26 0 24 3 25 60 25 65 0 72 6 83
68 l7 32 -53 0 c-28 0 -61 2 -72 3 -11 2 -43 2 -71 0z"/>
<path d="M7983 4051 c-38 -24 -63 -78 -65 -139 -1 -57 20 -79 94 -93 85 -17
69 -34 -30 -32 l-81 1 -15 -44 c-11 -33 -12 -45 -3 -51 22 -13 183 -16 221 -3
72 23 115 135 77 197 -16 25 -30 34 -75 44 -36 8 -56 17 -56 27 0 11 14 13 68
10 l67 -3 15 42 c8 23 11 46 6 50 -4 4 -49 9 -99 11 -78 2 -97 0 -124 -17z"/>
<path d="M1064 4049 c46 -6 73 -6 80 1 7 7 -16 10 -69 9 l-80 -2 69 -8z"/>
<path d="M1599 4048 c50 -6 77 -6 84 1 8 8 -14 11 -73 10 l-85 -2 74 -9z"/>
<path d="M1715 4038 c-14 -65 -55 -309 -55 -327 0 -19 6 -21 54 -21 60 0 55
-7 72 93 3 20 10 37 15 37 5 0 23 -29 41 -64 33 -68 52 -79 108 -66 22 5 26
14 36 70 7 36 15 81 19 100 4 19 12 69 19 110 l11 75 77 0 c42 0 80 3 84 8 4
4 -56 7 -134 7 -117 0 -142 -3 -142 -15 0 -30 -22 -115 -30 -115 -4 0 -23 29
-41 65 l-34 65 -47 0 c-41 0 -48 -3 -53 -22z"/>
<path d="M3191 4008 c-28 -146 -53 -310 -47 -315 7 -7 105 -7 112 0 3 3 7 18
9 33 3 16 14 81 25 144 11 63 23 132 26 153 l6 37 -60 0 -61 0 -10 -52z"/>
<path d="M3459 4048 c50 -6 77 -6 84 1 8 8 -14 11 -73 10 l-85 -2 74 -9z"/>
<path d="M3575 4048 c-7 -24 -75 -335 -75 -347 0 -8 18 -11 57 -9 l57 3 14 68
c8 37 18 67 23 67 4 0 9 -30 11 -67 l3 -68 48 0 49 0 24 60 c37 89 45 90 38 4
l-7 -74 59 5 59 5 12 85 c11 77 16 124 28 243 l3 37 -77 0 -77 0 -33 -80 c-18
-44 -37 -80 -42 -80 -5 0 -9 22 -9 49 0 27 -3 63 -6 80 l-6 31 -75 0 c-50 0
-75 -4 -78 -12z"/>
<path d="M4099 4048 c50 -6 77 -6 84 1 8 8 -14 11 -73 10 l-85 -2 74 -9z"/>
<path d="M4219 4058 c0 -2 -16 -85 -33 -186 l-33 -183 126 3 126 3 6 40 c4 22
5 42 2 45 -3 3 -30 5 -61 5 -54 0 -57 1 -57 25 0 23 4 25 55 30 54 5 55 6 58
38 l3 32 -51 0 c-48 0 -51 2 -48 23 3 19 10 22 61 25 55 3 58 4 72 39 27 63
27 63 -105 63 -66 0 -120 -1 -121 -2z"/>
<path d="M4825 4050 c72 -12 105 -11 105 0 0 6 -32 9 -77 9 -76 -2 -76 -2 -28
-9z"/>
<path d="M4956 4029 c-12 -62 -9 -69 29 -69 42 0 42 2 14 -144 -11 -59 -18
-114 -16 -120 5 -11 103 -13 114 -2 3 3 15 63 27 133 l22 128 34 3 c45 5 59
17 58 51 -1 16 2 33 6 40 5 8 -31 11 -137 11 l-144 0 -7 -31z"/>
<path d="M5261 4056 c11 -9 149 -15 149 -6 0 6 -32 10 -77 10 -42 0 -74 -2
-72 -4z"/>
<path d="M5881 4056 c11 -10 139 -16 139 -6 0 6 -29 10 -72 10 -39 0 -69 -2
-67 -4z"/>
<path d="M6013 3957 c-23 -56 -57 -139 -77 -184 l-35 -83 60 0 c54 0 60 2 69
25 8 22 15 25 60 25 47 0 50 -2 50 -25 0 -24 3 -25 61 -25 l61 0 -7 113 c-4
61 -9 132 -11 157 -2 25 -3 57 -3 73 l-1 27 -92 0 -93 0 -42 -103z m127 -62
c0 -55 0 -55 -31 -55 -33 0 -33 3 -3 77 21 49 34 40 34 -22z"/>
<path d="M6311 4056 c11 -10 149 -16 149 -7 0 7 -29 11 -77 11 -42 0 -74 -2
-72 -4z"/>
<path d="M6495 3928 c3 -73 8 -157 11 -185 l5 -53 89 0 c83 0 89 1 95 23 4 12
14 38 22 57 34 83 40 97 55 130 8 19 21 49 28 65 8 17 13 34 11 39 -1 4 5 19
14 33 l16 24 -67 -3 -67 -3 -41 -105 -41 -105 -3 108 -3 107 -64 0 -65 0 5
-132z"/>
<path d="M7321 4056 c2 -2 39 -7 82 -11 53 -5 77 -3 77 4 0 7 -30 11 -82 11
-45 0 -79 -2 -77 -4z"/>
<path d="M7482 3879 c-17 -100 -29 -185 -27 -190 3 -4 15 -6 28 -3 12 2 97 5
189 6 93 2 168 6 168 11 0 4 -24 8 -52 8 -29 1 -60 3 -68 4 -8 1 -20 3 -27 4
-8 1 -9 10 -2 33 5 18 9 34 9 35 0 2 -22 2 -50 1 -27 -1 -52 0 -55 3 -3 4 2
46 11 95 8 49 18 108 21 132 l6 42 -60 0 -60 0 -31 -181z"/>
<path d="M7860 4049 c40 -5 68 -5 74 1 7 7 -17 10 -64 9 l-75 -2 65 -8z"/>
<path d="M976 3991 c15 -15 136 -18 141 -3 4 9 -15 12 -73 12 -47 0 -74 -4
-68 -9z"/>
<path d="M7747 3989 c33 -12 138 -15 140 -4 2 6 -30 10 -78 11 -46 0 -73 -3
-62 -7z"/>
<path d="M1588 3978 c53 -7 77 -7 85 1 8 8 -12 11 -73 10 l-85 -2 73 -9z"/>
<path d="M2061 3986 c11 -10 149 -16 149 -7 0 7 -29 11 -77 11 -42 0 -74 -2
-72 -4z"/>
<path d="M3425 3980 c72 -12 105 -11 105 0 0 6 -32 9 -77 9 -76 -2 -76 -2 -28
-9z"/>
<path d="M4065 3980 c72 -12 105 -11 105 0 0 6 -32 9 -77 9 -76 -2 -76 -2 -28
-9z"/>
<path d="M4834 3978 c47 -7 72 -6 79 1 8 8 -12 11 -68 10 l-80 -2 69 -9z"/>
<path d="M5295 3980 c72 -12 105 -11 105 0 0 6 -32 9 -77 9 -76 -2 -76 -2 -28
-9z"/>
<path d="M5841 3986 c11 -10 149 -16 149 -7 0 7 -29 11 -77 11 -42 0 -74 -2
-72 -4z"/>
<path d="M6311 3986 c11 -10 149 -16 149 -7 0 7 -29 11 -77 11 -42 0 -74 -2
-72 -4z"/>
<path d="M6831 3986 c2 -2 39 -7 82 -11 53 -5 77 -3 77 4 0 7 -30 11 -82 11
-45 0 -79 -2 -77 -4z"/>
<path d="M7311 3986 c2 -2 39 -7 82 -11 53 -5 77 -3 77 4 0 7 -30 11 -82 11
-45 0 -79 -2 -77 -4z"/>
<path d="M950 3921 c22 -13 124 -18 130 -6 3 6 -24 11 -70 12 -48 2 -70 0 -60
-6z"/>
<path d="M5260 3919 c-34 -6 -34 -6 -5 -8 17 -1 54 -4 83 -7 33 -5 52 -3 52 4
0 12 -82 19 -130 11z"/>
<path d="M6860 3920 c-42 -5 -39 -6 34 -13 71 -6 98 -4 85 7 -9 8 -77 12 -119
6z"/>
<path d="M7740 3921 c22 -13 134 -18 140 -6 3 6 -26 11 -75 12 -50 2 -74 0
-65 -6z"/>
<path d="M1521 3916 c2 -2 34 -7 72 -11 45 -4 67 -3 67 4 0 7 -27 11 -72 11
-39 0 -69 -2 -67 -4z"/>
<path d="M2081 3916 c11 -10 139 -16 139 -6 0 6 -29 10 -72 10 -39 0 -69 -2
-67 -4z"/>
<path d="M2591 3916 c11 -10 149 -16 149 -7 0 7 -29 11 -77 11 -42 0 -74 -2
-72 -4z"/>
<path d="M2991 3916 c11 -10 149 -16 149 -7 0 7 -29 11 -77 11 -42 0 -74 -2
-72 -4z"/>
<path d="M3405 3910 c72 -12 105 -11 105 0 0 6 -32 9 -77 9 -76 -2 -76 -2 -28
-9z"/>
<path d="M4011 3916 c11 -10 149 -16 149 -7 0 7 -29 11 -77 11 -42 0 -74 -2
-72 -4z"/>
<path d="M4904 3908 c47 -7 72 -6 79 1 8 8 -12 11 -68 10 l-80 -2 69 -9z"/>
<path d="M5811 3916 c11 -10 149 -16 149 -7 0 7 -29 11 -77 11 -42 0 -74 -2
-72 -4z"/>
<path d="M6365 3910 c72 -12 105 -11 105 0 0 6 -32 9 -77 9 -76 -2 -76 -2 -28
-9z"/>
<path d="M7374 3908 c47 -7 72 -6 79 1 8 8 -12 11 -68 10 l-80 -2 69 -9z"/>
<path d="M926 3851 c-6 -9 113 -23 126 -15 5 3 6 10 3 15 -8 11 -122 12 -129
0z"/>
<path d="M1480 3852 c23 -15 170 -26 170 -13 0 7 -28 11 -74 11 -41 0 -83 3
-93 6 -14 4 -15 4 -3 -4z"/>
<path d="M2983 3848 c-2 -5 9 -8 25 -8 16 0 50 -3 76 -6 29 -4 46 -3 46 4 0
12 -139 21 -147 10z"/>
<path d="M3350 3853 c0 -14 132 -25 144 -13 7 7 -6 10 -36 10 -25 0 -60 3 -77
6 -18 4 -31 2 -31 -3z"/>
<path d="M6820 3852 c0 -9 130 -25 139 -17 8 9 -4 13 -71 20 -41 4 -68 3 -68
-3z"/>
<path d="M7760 3850 c72 -16 142 -20 137 -7 -2 8 -32 13 -88 14 -61 1 -75 -1
-49 -7z"/>
<path d="M2091 3846 c11 -10 149 -16 149 -7 0 7 -29 11 -77 11 -42 0 -74 -2
-72 -4z"/>
<path d="M2581 3846 c11 -10 149 -16 149 -7 0 7 -29 11 -77 11 -42 0 -74 -2
-72 -4z"/>
<path d="M4064 3839 c46 -6 73 -6 80 1 7 7 -16 10 -69 9 l-80 -2 69 -8z"/>
<path d="M4821 3846 c11 -10 149 -16 149 -7 0 7 -29 11 -77 11 -42 0 -74 -2
-72 -4z"/>
<path d="M5221 3846 c11 -10 149 -16 149 -7 0 7 -29 11 -77 11 -42 0 -74 -2
-72 -4z"/>
<path d="M5825 3840 c72 -12 105 -11 105 0 0 6 -32 9 -77 9 -76 -2 -76 -2 -28
-9z"/>
<path d="M6321 3846 c11 -10 149 -16 149 -7 0 7 -29 11 -77 11 -42 0 -74 -2
-72 -4z"/>
<path d="M7291 3846 c11 -10 149 -16 149 -7 0 7 -29 11 -77 11 -42 0 -74 -2
-72 -4z"/>
<path d="M875 3782 c14 -13 144 -20 145 -7 0 5 -35 11 -77 13 -50 2 -74 0 -68
-6z"/>
<path d="M5750 3781 c26 -15 150 -22 150 -8 0 8 -26 13 -82 14 -50 2 -77 0
-68 -6z"/>
<path d="M7725 3780 c-4 -6 14 -11 49 -12 31 -1 63 -2 71 -2 8 -1 14 3 13 9
-4 13 -125 18 -133 5z"/>
<path d="M1535 3770 c72 -12 105 -11 105 0 0 6 -32 9 -77 9 -76 -2 -76 -2 -28
-9z"/>
<path d="M2081 3776 c11 -9 159 -15 159 -6 0 6 -35 10 -82 10 -45 0 -79 -2
-77 -4z"/>
<path d="M2561 3776 c2 -2 39 -7 82 -11 53 -5 77 -3 77 4 0 7 -30 11 -82 11
-45 0 -79 -2 -77 -4z"/>
<path d="M2961 3776 c2 -2 39 -7 82 -11 53 -5 77 -3 77 4 0 7 -30 11 -82 11
-45 0 -79 -2 -77 -4z"/>
<path d="M3331 3776 c11 -10 149 -16 149 -7 0 7 -29 11 -77 11 -42 0 -74 -2
-72 -4z"/>
<path d="M4050 3769 c47 -6 78 -5 84 1 7 7 -19 10 -74 9 l-85 -2 75 -8z"/>
<path d="M4801 3776 c11 -10 159 -16 159 -6 0 6 -32 10 -82 10 -45 0 -79 -2
-77 -4z"/>
<path d="M5201 3776 c11 -10 159 -16 159 -6 0 6 -32 10 -82 10 -45 0 -79 -2
-77 -4z"/>
<path d="M6321 3776 c10 -9 149 -14 149 -5 0 5 -34 9 -77 9 -42 0 -74 -2 -72
-4z"/>
<path d="M6801 3776 c11 -10 149 -16 149 -7 0 7 -29 11 -77 11 -42 0 -74 -2
-72 -4z"/>
<path d="M7281 3776 c11 -10 149 -16 149 -7 0 7 -29 11 -77 11 -42 0 -74 -2
-72 -4z"/>
<path d="M920 3700 c37 -5 69 -4 74 1 6 5 -20 8 -65 8 l-74 -2 65 -7z"/>
<path d="M2071 3706 c11 -10 159 -16 159 -6 0 6 -32 10 -82 10 -45 0 -79 -2
-77 -4z"/>
<path d="M2614 3698 c53 -6 83 -5 90 2 7 7 -18 10 -79 9 l-90 -2 79 -9z"/>
<path d="M3014 3698 c53 -6 83 -5 90 2 7 7 -18 10 -79 9 l-90 -2 79 -9z"/>
<path d="M3311 3706 c11 -10 149 -16 149 -7 0 7 -29 11 -77 11 -42 0 -74 -2
-72 -4z"/>
<path d="M3961 3706 c2 -2 39 -7 82 -11 53 -5 77 -3 77 4 0 7 -30 11 -82 11
-45 0 -79 -2 -77 -4z"/>
<path d="M4791 3706 c11 -10 159 -16 159 -6 0 6 -32 10 -82 10 -45 0 -79 -2
-77 -4z"/>
<path d="M5191 3706 c11 -10 159 -16 159 -6 0 6 -32 10 -82 10 -45 0 -79 -2
-77 -4z"/>
<path d="M5784 3698 c55 -7 82 -6 89 1 8 8 -14 11 -78 10 l-90 -2 79 -9z"/>
<path d="M6321 3706 c2 -2 39 -7 82 -11 53 -5 77 -3 77 4 0 7 -30 11 -82 11
-45 0 -79 -2 -77 -4z"/>
<path d="M6781 3706 c11 -10 159 -16 159 -6 0 6 -32 10 -82 10 -45 0 -79 -2
-77 -4z"/>
<path d="M7305 3700 c72 -12 115 -11 115 0 0 6 -33 9 -82 9 -78 -2 -80 -2 -33
-9z"/>
<path d="M1447 3183 c-9 -2 -15 -9 -12 -14 4 -5 -1 -9 -9 -9 -9 0 -16 -3 -16
-8 0 -4 -19 -28 -42 -54 -24 -26 -57 -63 -75 -82 -17 -19 -29 -37 -25 -40 3
-3 0 -6 -6 -6 -7 0 -12 -4 -12 -10 0 -5 15 -10 33 -10 25 0 38 8 60 35 21 26
36 35 57 35 28 0 30 -3 28 -32 -3 -31 -1 -33 31 -33 22 0 35 5 37 15 2 8 6 29
9 45 13 67 16 82 22 128 l6 47 -34 -1 c-19 -1 -42 -3 -52 -6z m-6 -116 c-16
-16 -26 0 -10 19 9 11 15 12 17 4 2 -6 -1 -17 -7 -23z"/>
<path d="M1655 3180 c-11 -5 -15 -9 -10 -9 6 -1 6 -4 -1 -9 -17 -11 -84 -139
-77 -146 3 -3 2 -6 -4 -6 -8 0 -33 -41 -33 -55 0 -3 15 -5 34 -5 30 0 36 4 46
35 6 19 16 35 22 35 6 0 9 3 5 6 -6 7 17 34 28 34 4 0 5 -9 2 -20 -3 -11 -1
-20 3 -20 5 0 7 -9 5 -20 -6 -33 5 -50 34 -50 24 0 33 12 86 114 33 63 56 118
53 121 -10 10 -69 -5 -62 -16 3 -5 1 -9 -4 -9 -4 0 -16 -16 -26 -36 -20 -43
-33 -36 -38 21 -3 43 -22 53 -63 35z"/>
<path d="M1895 3184 c-7 -3 -10 -38 -9 -89 2 -47 -1 -85 -5 -85 -7 0 -31 -43
-31 -55 0 -3 15 -5 33 -5 29 0 35 5 47 36 14 35 161 184 182 184 6 0 3 -9 -7
-20 -14 -16 -15 -20 -4 -20 34 0 38 -21 14 -65 -14 -23 -21 -45 -18 -49 4 -3
2 -6 -4 -6 -8 0 -33 -41 -33 -55 0 -3 15 -5 33 -5 27 0 35 5 46 33 8 17 30 58
49 90 27 44 40 57 58 57 24 0 48 35 37 53 -4 6 -220 4 -263 -3 -3 0 2 -5 10
-10 12 -8 11 -10 -5 -10 -11 0 -27 -9 -35 -20 -20 -27 -35 -25 -38 6 -1 14 -4
30 -8 35 -5 9 -31 11 -49 3z"/>
<path d="M2350 3180 c-14 -4 -21 -8 -17 -9 5 -1 1 -8 -7 -17 -9 -8 -14 -20
-11 -25 4 -5 2 -9 -3 -9 -5 0 -17 -20 -28 -45 -10 -25 -23 -45 -29 -45 -5 0
-3 -5 5 -10 13 -8 13 -10 -1 -10 -14 0 -28 -26 -29 -52 0 -16 56 -7 66 10 40
63 113 210 107 215 -8 8 -20 8 -53 -3z"/>
<path d="M2482 3183 c-6 -3 -10 -9 -6 -14 3 -5 -2 -9 -10 -9 -9 0 -16 -9 -16
-20 0 -11 -5 -20 -11 -20 -5 0 -8 -4 -5 -9 3 -5 0 -14 -8 -20 -12 -11 -28 -51
-26 -67 1 -3 -5 -11 -13 -17 -8 -7 -18 -22 -22 -35 -6 -21 -4 -23 26 -20 26 2
36 10 53 43 11 22 28 49 38 59 16 18 18 18 18 3 0 -20 40 -23 58 -5 9 9 12 8
12 -5 0 -9 -5 -17 -11 -17 -5 0 -8 -4 -5 -9 4 -5 2 -11 -2 -13 -5 -1 -12 -15
-16 -30 -6 -26 -4 -28 21 -28 32 0 30 -2 101 132 29 53 48 99 44 102 -4 3 -17
3 -28 1 -10 -2 -26 -4 -34 -4 -13 -1 -13 -2 0 -11 12 -8 9 -10 -12 -10 -16 0
-28 -4 -28 -10 0 -5 -7 -10 -15 -10 -8 0 -15 -6 -15 -12 -1 -16 -21 18 -24 40
-3 16 -38 24 -64 15z"/>
<path d="M2775 3180 c-11 -5 -16 -9 -12 -9 5 -1 1 -8 -7 -17 -9 -8 -14 -20
-11 -25 4 -5 2 -9 -4 -9 -5 0 -15 -16 -22 -35 -7 -19 -17 -35 -22 -35 -4 0 -6
-4 -2 -9 3 -5 -1 -15 -8 -23 -8 -7 -17 -26 -21 -41 l-6 -27 73 0 c70 0 73 1
90 30 l18 30 -45 0 c-36 0 -44 3 -40 15 4 10 20 15 51 15 32 0 50 5 59 18 24
31 17 42 -28 42 -33 0 -39 3 -30 12 7 7 27 13 45 14 18 1 37 2 43 3 13 1 35
47 27 55 -9 9 -125 6 -148 -4z"/>
<path d="M3127 3146 c-90 -93 -116 -124 -110 -130 4 -3 -1 -6 -10 -6 -8 0 -19
-9 -22 -20 -3 -11 -11 -20 -16 -20 -5 0 -9 -4 -9 -10 0 -5 15 -10 34 -10 26 0
41 8 65 35 37 42 80 49 82 13 1 -13 1 -29 0 -35 -1 -8 11 -13 33 -13 33 0 36
3 42 38 3 20 13 70 20 110 8 40 12 77 9 82 -3 6 -22 10 -41 10 -28 0 -43 -9
-77 -44z m43 -66 c0 -13 -28 -25 -38 -16 -3 4 0 11 8 16 20 13 30 12 30 0z"/>
<path d="M3365 3180 c-11 -5 -16 -9 -12 -9 5 -1 1 -8 -7 -17 -9 -8 -14 -20
-11 -25 4 -5 2 -9 -4 -9 -5 0 -13 -10 -17 -22 -3 -13 -11 -29 -17 -37 -6 -7
-12 -20 -14 -29 -1 -9 -7 -18 -13 -20 -5 -2 -8 -8 -4 -13 3 -5 0 -9 -5 -9 -6
0 -11 -9 -11 -20 0 -16 7 -20 30 -20 27 0 33 6 57 55 30 60 49 71 50 28 1 -85
1 -84 34 -81 28 3 36 13 89 113 32 60 56 113 54 117 -3 4 -15 6 -27 4 -12 -3
-28 -5 -36 -5 -8 -1 -12 -4 -8 -7 3 -4 -1 -13 -9 -21 -8 -8 -12 -19 -9 -24 4
-5 2 -9 -3 -9 -5 0 -13 -10 -17 -22 -6 -19 -9 -15 -14 22 -10 70 -25 82 -76
60z"/>
<path d="M3613 3181 c-6 -3 -9 -39 -9 -80 1 -50 -3 -78 -12 -87 -7 -8 -15 -25
-18 -39 -4 -22 -1 -25 24 -25 23 0 33 8 52 42 28 50 156 178 177 178 8 0 11
-4 8 -10 -3 -5 -8 -18 -10 -27 -2 -10 -13 -53 -23 -95 -11 -43 -17 -80 -14
-83 3 -3 20 -5 37 -5 26 0 37 8 64 45 33 47 73 65 51 24 -7 -11 -9 -27 -6 -35
3 -8 1 -14 -5 -14 -6 0 -7 -4 -4 -10 3 -5 21 -10 39 -10 25 0 39 8 61 36 16
20 40 48 54 64 14 15 40 45 56 65 17 21 36 45 43 52 11 11 11 14 -2 19 -20 8
-64 -3 -80 -19 -7 -7 -27 -32 -45 -57 l-33 -45 6 49 c4 27 8 54 9 60 1 6 -4
11 -10 10 -7 -1 -25 -2 -39 -2 -14 -1 -22 -6 -19 -12 3 -5 -1 -10 -9 -10 -8 0
-17 -8 -20 -18 -4 -11 -18 -30 -32 -43 l-26 -24 8 25 c4 14 8 38 9 55 l0 30
-57 -1 c-89 -2 -100 -3 -94 -12 2 -4 -9 -14 -25 -21 -16 -7 -27 -17 -23 -22 3
-5 -2 -9 -10 -9 -14 0 -22 24 -17 53 0 4 -2 7 -6 8 -5 0 -15 2 -24 4 -9 1 -21
0 -26 -4z"/>
<path d="M4232 3183 c-6 -2 -10 -9 -6 -14 3 -5 1 -9 -4 -9 -5 0 -17 -19 -28
-42 -10 -24 -24 -49 -31 -56 -12 -13 -17 -27 -14 -44 0 -5 -3 -8 -7 -8 -8 0
-32 -43 -32 -55 0 -3 15 -5 33 -5 28 0 35 6 52 43 18 37 24 42 58 45 l38 3
-21 -38 c-27 -50 -26 -55 11 -51 33 3 30 -2 120 168 16 30 25 58 20 63 -11 11
-63 -2 -55 -14 3 -5 -2 -9 -11 -9 -9 0 -13 -4 -10 -10 3 -5 1 -10 -6 -10 -7 0
-9 -3 -6 -7 13 -12 -15 -33 -44 -33 -34 0 -33 -2 -14 43 8 19 11 37 8 41 -7 7
-32 7 -51 -1z"/>
<path d="M4501 3183 c-19 -4 -21 -7 -10 -14 8 -5 9 -9 2 -9 -13 0 -85 -135
-76 -144 4 -3 2 -6 -4 -6 -8 0 -33 -41 -33 -55 0 -3 33 -5 74 -5 67 0 75 2 90
25 22 34 21 35 -25 35 -56 0 -47 24 11 28 69 5 100 62 34 62 -24 0 -34 4 -31
13 2 7 22 12 48 12 36 0 45 4 56 24 6 14 10 29 7 33 -5 8 -100 9 -143 1z"/>
<path d="M4725 3180 c-11 -5 -15 -9 -10 -10 6 0 2 -5 -7 -11 -10 -5 -18 -17
-18 -24 0 -8 -3 -15 -7 -15 -9 0 -49 -91 -45 -102 1 -5 -5 -8 -14 -8 -8 0 -13
-4 -9 -9 3 -5 1 -12 -5 -16 -5 -3 -10 -13 -10 -21 0 -11 9 -14 33 -12 27 3 35
10 51 46 13 27 26 42 38 42 10 0 19 -4 19 -10 1 -5 2 -14 3 -19 0 -5 4 -13 9
-17 4 -4 7 -16 7 -26 0 -16 10 -18 118 -18 l118 0 17 30 18 30 -40 0 c-30 0
-41 4 -41 15 0 11 12 15 46 15 33 0 51 5 60 18 24 31 17 42 -28 42 -32 0 -39
3 -30 12 6 6 29 13 49 14 21 1 41 2 44 3 5 1 29 47 29 56 0 9 -134 4 -155 -5
-11 -5 -15 -9 -10 -9 6 -1 4 -5 -3 -10 -7 -4 -14 -15 -16 -23 -1 -9 -7 -22
-13 -29 -6 -8 -19 -33 -28 -56 -10 -24 -21 -43 -25 -43 -5 0 -10 -10 -12 -22
-5 -35 -22 -31 -39 11 l-16 38 33 33 c37 36 45 78 19 100 -19 15 -102 22 -130
10z m73 -62 c-3 -7 -17 -15 -33 -16 -25 -3 -27 -2 -16 12 16 19 55 22 49 4z"/>
<path d="M5352 3183 c-6 -2 -10 -9 -6 -14 3 -5 -1 -9 -8 -9 -7 0 -26 -16 -43
-36 -16 -20 -44 -50 -62 -69 -18 -18 -29 -35 -26 -39 3 -3 -1 -6 -10 -6 -8 0
-19 -9 -22 -20 -3 -11 -11 -20 -16 -20 -5 0 -9 -4 -9 -10 0 -5 15 -10 33 -10
25 0 42 9 67 35 19 20 44 35 57 35 23 0 27 -6 25 -47 -1 -20 4 -23 33 -23 19
0 35 1 35 3 0 1 7 40 15 87 29 161 30 150 -13 149 -20 0 -43 -3 -50 -6z m8
-102 c0 -5 -7 -12 -16 -15 -24 -9 -28 -7 -14 9 14 17 30 20 30 6z"/>
<path d="M5556 3183 c-15 -4 -16 -7 -5 -14 11 -7 11 -9 -3 -9 -16 0 -23 -12
-15 -24 1 -2 -5 -12 -14 -22 -8 -11 -24 -38 -34 -61 -10 -24 -22 -43 -27 -43
-5 0 -7 -4 -4 -9 3 -5 -1 -14 -9 -21 -20 -17 -9 -30 25 -30 24 0 33 8 57 52
32 60 49 70 50 31 1 -85 1 -84 34 -81 28 3 36 13 89 113 33 61 60 114 60 119
0 5 -14 6 -32 2 -29 -6 -66 -41 -60 -58 1 -5 -2 -8 -8 -8 -5 0 -10 -7 -10 -15
0 -8 -4 -15 -10 -15 -5 0 -10 14 -10 31 0 59 -20 76 -74 62z"/>
<path d="M5804 3183 c-6 -5 -10 -41 -9 -90 1 -63 -2 -83 -12 -83 -7 0 -13 -6
-13 -14 0 -8 -3 -21 -6 -30 -5 -12 1 -16 23 -16 24 0 34 8 53 43 13 23 58 75
99 115 41 39 72 74 70 77 -7 7 -79 -7 -75 -14 3 -4 -9 -13 -25 -20 -16 -7 -27
-17 -23 -22 3 -5 -2 -9 -10 -9 -9 0 -17 9 -17 20 -1 11 -2 26 -3 33 -1 14 -36
21 -52 10z"/>
<path d="M6050 3181 c-8 -6 -10 -11 -5 -11 6 0 5 -3 -1 -8 -11 -7 -114 -193
-114 -205 0 -4 33 -7 73 -7 54 0 82 5 112 21 91 48 131 136 86 187 -21 25
-125 41 -151 23z m90 -81 c0 -18 -10 -39 -24 -53 -14 -14 -22 -28 -19 -31 4
-3 -10 -6 -30 -6 -41 0 -41 0 1 78 17 32 28 42 47 42 21 0 25 -5 25 -30z"/>
<path d="M6321 3183 c-19 -4 -21 -7 -10 -14 11 -7 11 -9 -3 -9 -16 0 -23 -11
-19 -32 0 -5 -3 -8 -8 -8 -5 0 -13 -10 -17 -22 -3 -13 -15 -35 -25 -49 -10
-14 -16 -29 -12 -33 3 -3 2 -6 -4 -6 -6 0 -16 -13 -22 -30 -10 -29 -9 -30 23
-30 31 0 35 5 89 105 31 57 58 110 59 117 3 13 -16 18 -51 11z"/>
<path d="M6440 3179 c-13 -6 -31 -18 -40 -27 -32 -35 -20 -92 19 -92 11 0 17
-8 17 -25 0 -23 -3 -25 -51 -25 -46 0 -53 -3 -63 -25 -7 -14 -12 -28 -12 -30
0 -3 29 -5 65 -5 77 0 121 22 142 71 11 28 11 35 -2 56 -9 12 -22 23 -30 23
-8 0 -15 7 -15 15 0 11 11 15 38 15 31 0 41 5 50 24 6 13 8 27 5 30 -10 9 -95
6 -123 -5z"/>
<path d="M6620 3180 c-8 -5 -11 -10 -7 -10 5 0 1 -8 -9 -17 -17 -17 -17 -18 3
-21 21 -3 42 -32 23 -32 -9 0 -36 -69 -32 -82 1 -5 -2 -8 -6 -8 -8 0 -32 -43
-32 -56 0 -3 14 -4 31 -2 29 3 36 12 77 90 25 48 48 86 51 86 30 -3 50 6 59
26 6 13 8 27 5 30 -10 10 -147 6 -163 -4z"/>
<path d="M6897 3183 c-9 -2 -15 -9 -12 -14 4 -5 -1 -9 -9 -9 -9 0 -16 -4 -16
-9 0 -5 -19 -30 -42 -55 -63 -67 -67 -73 -61 -80 4 -3 1 -6 -6 -6 -16 0 -42
-26 -34 -34 4 -3 1 -6 -5 -6 -7 0 -12 -4 -12 -10 0 -5 14 -10 31 -10 23 0 41
10 66 35 21 22 43 35 60 35 23 0 25 -3 21 -35 -4 -35 -4 -35 34 -35 23 0 39 5
40 13 0 6 2 23 4 37 1 14 9 60 17 102 8 43 12 80 9 83 -6 6 -59 5 -85 -2z m3
-102 c0 -12 -20 -25 -27 -18 -7 7 6 27 18 27 5 0 9 -4 9 -9z"/>
<path d="M7103 3179 c-10 -4 -14 -8 -10 -8 5 -1 1 -8 -7 -17 -9 -8 -14 -20
-11 -25 4 -5 2 -9 -4 -9 -5 0 -13 -10 -17 -22 -3 -12 -13 -28 -20 -36 -8 -7
-12 -18 -9 -23 4 -5 1 -9 -5 -9 -6 0 -8 -4 -5 -10 3 -5 1 -10 -6 -10 -7 0 -10
-3 -6 -6 3 -4 0 -13 -8 -21 -23 -23 -18 -33 18 -33 29 0 36 6 62 55 32 58 39
64 49 40 3 -8 0 -15 -7 -15 -8 0 -8 -3 -1 -8 5 -4 10 -17 11 -29 0 -13 1 -27
2 -33 1 -5 14 -10 30 -10 27 0 34 9 89 113 33 61 56 116 52 121 -4 4 -22 5
-40 1 -17 -4 -29 -9 -26 -12 3 -3 -2 -12 -10 -20 -8 -8 -12 -18 -10 -21 2 -4
-5 -16 -15 -26 -14 -15 -19 -16 -20 -5 -1 20 -8 62 -14 76 -4 13 -32 13 -62 2z"/>
<path d="M7407 3183 c-9 -2 -15 -9 -12 -14 4 -5 -3 -9 -15 -9 -23 0 -53 -24
-43 -34 4 -3 -1 -6 -10 -6 -14 0 -36 -45 -43 -90 -5 -26 8 -60 22 -60 8 0 14
-4 14 -10 0 -5 19 -10 43 -10 36 0 44 4 59 30 l17 30 -28 0 c-16 0 -34 7 -41
15 -29 35 28 95 91 95 32 0 41 5 53 29 9 16 12 31 9 35 -7 7 -88 6 -116 -1z"/>
<path d="M7585 3180 c-11 -5 -15 -9 -10 -9 6 -1 5 -4 -1 -9 -13 -8 -69 -114
-66 -124 1 -5 -3 -8 -9 -8 -5 0 -7 -4 -4 -10 3 -5 2 -10 -3 -10 -6 0 -15 -13
-21 -30 l-10 -30 77 0 c76 0 78 1 95 30 l18 30 -45 0 c-36 0 -44 3 -40 15 4
10 21 15 53 15 41 0 49 3 59 25 16 36 17 35 -28 35 -22 0 -40 4 -40 9 0 13 34
23 62 17 29 -5 41 1 56 31 9 17 9 22 -4 27 -23 9 -116 6 -139 -4z"/>
</g>
</svg>
